<svg id="Layer_1" data-name="Layer 1" xmlns="http://www.w3.org/2000/svg" width="0.4167in" height="0.4167in" viewBox="0 0 30 30"><title>marker</title><g id="_Group_" data-name="&lt;Group&gt;"><path d="M15,28.9c-1.6-3-8-9.4-9.9-13.5a9.98,9.98,0,0,1-1-4.2C4.2,5.7,9.1,1.1,15,1.1S25.9,5.7,25.9,11.2a9.98,9.98,0,0,1-1,4.2h0C23,19.5,16.6,25.9,15,28.9Z" fill="#9b3700"/><path d="M5.1,15.4a9.98,9.98,0,0,1-1-4.2C4.2,5.7,9.1,1.1,15,1.1S25.9,5.7,25.9,11.2a9.98,9.98,0,0,1-1,4.2" fill="none" stroke="#cc591f" stroke-miterlimit="10"/><path d="M5.1,15.4C7,19.5,13.4,25.9,15,28.9" fill="none" stroke="#cc591f" stroke-miterlimit="10"/><path d="M24.9,15.4C23,19.5,16.6,25.9,15,28.9h0" fill="none" stroke="#cc591f" stroke-miterlimit="10"/></g></svg>